<mxfile host="app.diagrams.net" agent="Mozilla/5.0 (Macintosh; Intel Mac OS X 10_15_7) AppleWebKit/605.1.15 (KHTML, like Gecko) Version/18.1 Safari/605.1.15" version="24.8.3">
  <diagram name="Page-1" id="iPETHa35SBx3CC4mRHwk">
    <mxGraphModel dx="1706" dy="924" grid="1" gridSize="10" guides="1" tooltips="1" connect="1" arrows="1" fold="1" page="1" pageScale="1" pageWidth="1920" pageHeight="1200" math="0" shadow="0">
      <root>
        <mxCell id="0" />
        <mxCell id="1" parent="0" />
        <mxCell id="hd17lNJhvblxsi9grx8w-8" value="Connect4Game" style="swimlane;fontStyle=1;align=center;verticalAlign=top;childLayout=stackLayout;horizontal=1;startSize=26;horizontalStack=0;resizeParent=1;resizeParentMax=0;resizeLast=0;collapsible=1;marginBottom=0;whiteSpace=wrap;html=1;" parent="1" vertex="1">
          <mxGeometry x="700" y="20" width="190" height="120" as="geometry" />
        </mxCell>
        <mxCell id="hd17lNJhvblxsi9grx8w-9" value="-logicManager: Connect4Logic&lt;div&gt;-turnManager: TurnManager&lt;/div&gt;" style="text;strokeColor=none;fillColor=none;align=left;verticalAlign=top;spacingLeft=4;spacingRight=4;overflow=hidden;rotatable=0;points=[[0,0.5],[1,0.5]];portConstraint=eastwest;whiteSpace=wrap;html=1;" parent="hd17lNJhvblxsi9grx8w-8" vertex="1">
          <mxGeometry y="26" width="190" height="44" as="geometry" />
        </mxCell>
        <mxCell id="hd17lNJhvblxsi9grx8w-10" value="" style="line;strokeWidth=1;fillColor=none;align=left;verticalAlign=middle;spacingTop=-1;spacingLeft=3;spacingRight=3;rotatable=0;labelPosition=right;points=[];portConstraint=eastwest;strokeColor=inherit;" parent="hd17lNJhvblxsi9grx8w-8" vertex="1">
          <mxGeometry y="70" width="190" height="8" as="geometry" />
        </mxCell>
        <mxCell id="hd17lNJhvblxsi9grx8w-11" value="+Connect4Game()&amp;nbsp;&lt;div&gt;+startGame(): void&amp;nbsp;&lt;/div&gt;" style="text;strokeColor=none;fillColor=none;align=left;verticalAlign=top;spacingLeft=4;spacingRight=4;overflow=hidden;rotatable=0;points=[[0,0.5],[1,0.5]];portConstraint=eastwest;whiteSpace=wrap;html=1;" parent="hd17lNJhvblxsi9grx8w-8" vertex="1">
          <mxGeometry y="78" width="190" height="42" as="geometry" />
        </mxCell>
        <mxCell id="u60iNPJEnE9WAm1l47xR-1" value="Connect4Logic" style="swimlane;fontStyle=1;align=center;verticalAlign=top;childLayout=stackLayout;horizontal=1;startSize=26;horizontalStack=0;resizeParent=1;resizeParentMax=0;resizeLast=0;collapsible=1;marginBottom=0;whiteSpace=wrap;html=1;" parent="1" vertex="1">
          <mxGeometry x="410" y="240" width="290" height="150" as="geometry" />
        </mxCell>
        <mxCell id="u60iNPJEnE9WAm1l47xR-3" value="" style="line;strokeWidth=1;fillColor=none;align=left;verticalAlign=middle;spacingTop=-1;spacingLeft=3;spacingRight=3;rotatable=0;labelPosition=right;points=[];portConstraint=eastwest;strokeColor=inherit;" parent="u60iNPJEnE9WAm1l47xR-1" vertex="1">
          <mxGeometry y="26" width="290" height="8" as="geometry" />
        </mxCell>
        <mxCell id="u60iNPJEnE9WAm1l47xR-4" value="+valid(board:int[][], row:int, col:int): boolean&lt;div&gt;+boardFull(board:int[][]): boolean&amp;nbsp;&lt;/div&gt;&lt;div&gt;+placePiece(board:int[][], col:int, piece:int): boolean&amp;nbsp;&lt;/div&gt;&lt;div&gt;+horizontalWin(board:int[][], piece:int): boolean&amp;nbsp;&lt;/div&gt;&lt;div&gt;+verticalWin(board:int[][], piece:int): boolean&lt;/div&gt;&lt;div&gt;+backslashWin(board:int[][], piece:int): boolean&amp;nbsp;&lt;/div&gt;&lt;div&gt;+forwardslashWin(board:int[][], piece:int): boolean&lt;/div&gt;" style="text;strokeColor=none;fillColor=none;align=left;verticalAlign=top;spacingLeft=4;spacingRight=4;overflow=hidden;rotatable=0;points=[[0,0.5],[1,0.5]];portConstraint=eastwest;whiteSpace=wrap;html=1;" parent="u60iNPJEnE9WAm1l47xR-1" vertex="1">
          <mxGeometry y="34" width="290" height="116" as="geometry" />
        </mxCell>
        <mxCell id="u60iNPJEnE9WAm1l47xR-5" value="TurnManager" style="swimlane;fontStyle=1;align=center;verticalAlign=top;childLayout=stackLayout;horizontal=1;startSize=26;horizontalStack=0;resizeParent=1;resizeParentMax=0;resizeLast=0;collapsible=1;marginBottom=0;whiteSpace=wrap;html=1;" parent="1" vertex="1">
          <mxGeometry x="860" y="240" width="370" height="150" as="geometry" />
        </mxCell>
        <mxCell id="u60iNPJEnE9WAm1l47xR-6" value="-playerRed: UserPiece&amp;nbsp;&lt;div&gt;-playerBlue: UserPiece&lt;/div&gt;&lt;div&gt;-currentPlayer: UserPiece&lt;/div&gt;" style="text;strokeColor=none;fillColor=none;align=left;verticalAlign=top;spacingLeft=4;spacingRight=4;overflow=hidden;rotatable=0;points=[[0,0.5],[1,0.5]];portConstraint=eastwest;whiteSpace=wrap;html=1;" parent="u60iNPJEnE9WAm1l47xR-5" vertex="1">
          <mxGeometry y="26" width="370" height="54" as="geometry" />
        </mxCell>
        <mxCell id="u60iNPJEnE9WAm1l47xR-7" value="" style="line;strokeWidth=1;fillColor=none;align=left;verticalAlign=middle;spacingTop=-1;spacingLeft=3;spacingRight=3;rotatable=0;labelPosition=right;points=[];portConstraint=eastwest;strokeColor=inherit;" parent="u60iNPJEnE9WAm1l47xR-5" vertex="1">
          <mxGeometry y="80" width="370" height="8" as="geometry" />
        </mxCell>
        <mxCell id="u60iNPJEnE9WAm1l47xR-8" value="+TurnManager(playerRed:UserPiece, playerBlue:UserPiece): void&amp;nbsp;&lt;div&gt;+getCurrentPlayer(): UserPiece&lt;/div&gt;&lt;div&gt;+changeTurns(): void&amp;nbsp;&lt;/div&gt;" style="text;strokeColor=none;fillColor=none;align=left;verticalAlign=top;spacingLeft=4;spacingRight=4;overflow=hidden;rotatable=0;points=[[0,0.5],[1,0.5]];portConstraint=eastwest;whiteSpace=wrap;html=1;" parent="u60iNPJEnE9WAm1l47xR-5" vertex="1">
          <mxGeometry y="88" width="370" height="62" as="geometry" />
        </mxCell>
        <mxCell id="u60iNPJEnE9WAm1l47xR-10" value="&lt;div&gt;&amp;lt;&amp;lt;Interface&amp;gt;&amp;gt;&lt;/div&gt;IUserPiece" style="swimlane;fontStyle=1;align=center;verticalAlign=top;childLayout=stackLayout;horizontal=1;startSize=40;horizontalStack=0;resizeParent=1;resizeParentMax=0;resizeLast=0;collapsible=1;marginBottom=0;whiteSpace=wrap;html=1;" parent="1" vertex="1">
          <mxGeometry x="1100" y="480" width="230" height="94" as="geometry" />
        </mxCell>
        <mxCell id="u60iNPJEnE9WAm1l47xR-11" value="&lt;div&gt;&lt;br&gt;&lt;/div&gt;" style="text;strokeColor=none;fillColor=none;align=left;verticalAlign=top;spacingLeft=4;spacingRight=4;overflow=hidden;rotatable=0;points=[[0,0.5],[1,0.5]];portConstraint=eastwest;whiteSpace=wrap;html=1;" parent="u60iNPJEnE9WAm1l47xR-10" vertex="1">
          <mxGeometry y="40" width="230" height="4" as="geometry" />
        </mxCell>
        <mxCell id="u60iNPJEnE9WAm1l47xR-12" value="" style="line;strokeWidth=1;fillColor=none;align=left;verticalAlign=middle;spacingTop=-1;spacingLeft=3;spacingRight=3;rotatable=0;labelPosition=right;points=[];portConstraint=eastwest;strokeColor=inherit;" parent="u60iNPJEnE9WAm1l47xR-10" vertex="1">
          <mxGeometry y="44" width="230" height="8" as="geometry" />
        </mxCell>
        <mxCell id="u60iNPJEnE9WAm1l47xR-13" value="+getPiece(): int&lt;div&gt;+userMove(board:Connect4Board): int[]&lt;/div&gt;" style="text;strokeColor=none;fillColor=none;align=left;verticalAlign=top;spacingLeft=4;spacingRight=4;overflow=hidden;rotatable=0;points=[[0,0.5],[1,0.5]];portConstraint=eastwest;whiteSpace=wrap;html=1;" parent="u60iNPJEnE9WAm1l47xR-10" vertex="1">
          <mxGeometry y="52" width="230" height="42" as="geometry" />
        </mxCell>
        <mxCell id="u60iNPJEnE9WAm1l47xR-14" value="UserPiece" style="swimlane;fontStyle=1;align=center;verticalAlign=top;childLayout=stackLayout;horizontal=1;startSize=26;horizontalStack=0;resizeParent=1;resizeParentMax=0;resizeLast=0;collapsible=1;marginBottom=0;whiteSpace=wrap;html=1;" parent="1" vertex="1">
          <mxGeometry x="800" y="490" width="230" height="120" as="geometry" />
        </mxCell>
        <mxCell id="u60iNPJEnE9WAm1l47xR-15" value="-piece: int" style="text;strokeColor=none;fillColor=none;align=left;verticalAlign=top;spacingLeft=4;spacingRight=4;overflow=hidden;rotatable=0;points=[[0,0.5],[1,0.5]];portConstraint=eastwest;whiteSpace=wrap;html=1;" parent="u60iNPJEnE9WAm1l47xR-14" vertex="1">
          <mxGeometry y="26" width="230" height="24" as="geometry" />
        </mxCell>
        <mxCell id="u60iNPJEnE9WAm1l47xR-16" value="" style="line;strokeWidth=1;fillColor=none;align=left;verticalAlign=middle;spacingTop=-1;spacingLeft=3;spacingRight=3;rotatable=0;labelPosition=right;points=[];portConstraint=eastwest;strokeColor=inherit;" parent="u60iNPJEnE9WAm1l47xR-14" vertex="1">
          <mxGeometry y="50" width="230" height="8" as="geometry" />
        </mxCell>
        <mxCell id="u60iNPJEnE9WAm1l47xR-17" value="+UserPiece(piece:int): void&amp;nbsp;&lt;div&gt;+getPiece(): int&amp;nbsp;&lt;/div&gt;&lt;div&gt;+userMove(board:Connect4Board): int[]&lt;/div&gt;" style="text;strokeColor=none;fillColor=none;align=left;verticalAlign=top;spacingLeft=4;spacingRight=4;overflow=hidden;rotatable=0;points=[[0,0.5],[1,0.5]];portConstraint=eastwest;whiteSpace=wrap;html=1;" parent="u60iNPJEnE9WAm1l47xR-14" vertex="1">
          <mxGeometry y="58" width="230" height="62" as="geometry" />
        </mxCell>
        <mxCell id="u60iNPJEnE9WAm1l47xR-18" value="Connect4Board" style="swimlane;fontStyle=1;align=center;verticalAlign=top;childLayout=stackLayout;horizontal=1;startSize=26;horizontalStack=0;resizeParent=1;resizeParentMax=0;resizeLast=0;collapsible=1;marginBottom=0;whiteSpace=wrap;html=1;" parent="1" vertex="1">
          <mxGeometry x="450" y="490" width="210" height="120" as="geometry" />
        </mxCell>
        <mxCell id="u60iNPJEnE9WAm1l47xR-19" value="#board: int[][]&amp;nbsp;" style="text;strokeColor=none;fillColor=none;align=left;verticalAlign=top;spacingLeft=4;spacingRight=4;overflow=hidden;rotatable=0;points=[[0,0.5],[1,0.5]];portConstraint=eastwest;whiteSpace=wrap;html=1;" parent="u60iNPJEnE9WAm1l47xR-18" vertex="1">
          <mxGeometry y="26" width="210" height="24" as="geometry" />
        </mxCell>
        <mxCell id="u60iNPJEnE9WAm1l47xR-20" value="" style="line;strokeWidth=1;fillColor=none;align=left;verticalAlign=middle;spacingTop=-1;spacingLeft=3;spacingRight=3;rotatable=0;labelPosition=right;points=[];portConstraint=eastwest;strokeColor=inherit;" parent="u60iNPJEnE9WAm1l47xR-18" vertex="1">
          <mxGeometry y="50" width="210" height="8" as="geometry" />
        </mxCell>
        <mxCell id="u60iNPJEnE9WAm1l47xR-21" value="+Connect4Board(): void&amp;nbsp;&lt;div&gt;+getBoard(): int[][]&amp;nbsp;&lt;/div&gt;&lt;div&gt;&lt;u&gt;+printBoard(board:int[][]): void&lt;/u&gt;&lt;/div&gt;" style="text;strokeColor=none;fillColor=none;align=left;verticalAlign=top;spacingLeft=4;spacingRight=4;overflow=hidden;rotatable=0;points=[[0,0.5],[1,0.5]];portConstraint=eastwest;whiteSpace=wrap;html=1;" parent="u60iNPJEnE9WAm1l47xR-18" vertex="1">
          <mxGeometry y="58" width="210" height="62" as="geometry" />
        </mxCell>
        <mxCell id="feT8apLmcpWoGLLpXeaf-1" value="&amp;lt;&amp;lt;Abstract&amp;gt;&amp;gt;&lt;div&gt;StartGame&lt;/div&gt;" style="swimlane;fontStyle=1;align=center;verticalAlign=top;childLayout=stackLayout;horizontal=1;startSize=40;horizontalStack=0;resizeParent=1;resizeParentMax=0;resizeLast=0;collapsible=1;marginBottom=0;whiteSpace=wrap;html=1;" vertex="1" parent="1">
          <mxGeometry x="1010" y="33" width="170" height="94" as="geometry" />
        </mxCell>
        <mxCell id="feT8apLmcpWoGLLpXeaf-2" value="&lt;div&gt;&lt;br&gt;&lt;/div&gt;" style="text;strokeColor=none;fillColor=none;align=left;verticalAlign=top;spacingLeft=4;spacingRight=4;overflow=hidden;rotatable=0;points=[[0,0.5],[1,0.5]];portConstraint=eastwest;whiteSpace=wrap;html=1;" vertex="1" parent="feT8apLmcpWoGLLpXeaf-1">
          <mxGeometry y="40" width="170" height="4" as="geometry" />
        </mxCell>
        <mxCell id="feT8apLmcpWoGLLpXeaf-3" value="" style="line;strokeWidth=1;fillColor=none;align=left;verticalAlign=middle;spacingTop=-1;spacingLeft=3;spacingRight=3;rotatable=0;labelPosition=right;points=[];portConstraint=eastwest;strokeColor=inherit;" vertex="1" parent="feT8apLmcpWoGLLpXeaf-1">
          <mxGeometry y="44" width="170" height="8" as="geometry" />
        </mxCell>
        <mxCell id="feT8apLmcpWoGLLpXeaf-4" value="+startGame(): void" style="text;strokeColor=none;fillColor=none;align=left;verticalAlign=top;spacingLeft=4;spacingRight=4;overflow=hidden;rotatable=0;points=[[0,0.5],[1,0.5]];portConstraint=eastwest;whiteSpace=wrap;html=1;" vertex="1" parent="feT8apLmcpWoGLLpXeaf-1">
          <mxGeometry y="52" width="170" height="42" as="geometry" />
        </mxCell>
        <mxCell id="feT8apLmcpWoGLLpXeaf-5" value="Use" style="endArrow=open;endSize=12;dashed=1;html=1;rounded=0;entryX=0.523;entryY=-0.006;entryDx=0;entryDy=0;entryPerimeter=0;" edge="1" parent="1" target="u60iNPJEnE9WAm1l47xR-14">
          <mxGeometry width="160" relative="1" as="geometry">
            <mxPoint x="920" y="390" as="sourcePoint" />
            <mxPoint x="920" y="480" as="targetPoint" />
          </mxGeometry>
        </mxCell>
        <mxCell id="feT8apLmcpWoGLLpXeaf-6" value="Extends" style="endArrow=block;endSize=16;endFill=0;html=1;rounded=0;entryX=0.5;entryY=0;entryDx=0;entryDy=0;" edge="1" parent="1" target="u60iNPJEnE9WAm1l47xR-18">
          <mxGeometry width="160" relative="1" as="geometry">
            <mxPoint x="554.63" y="390" as="sourcePoint" />
            <mxPoint x="554.63" y="460" as="targetPoint" />
          </mxGeometry>
        </mxCell>
        <mxCell id="feT8apLmcpWoGLLpXeaf-7" value="Extends" style="endArrow=block;endSize=16;endFill=0;html=1;rounded=0;" edge="1" parent="1">
          <mxGeometry width="160" relative="1" as="geometry">
            <mxPoint x="890" y="79.38" as="sourcePoint" />
            <mxPoint x="1010" y="79.38" as="targetPoint" />
          </mxGeometry>
        </mxCell>
        <mxCell id="feT8apLmcpWoGLLpXeaf-8" value="" style="endArrow=block;dashed=1;endFill=0;endSize=12;html=1;rounded=0;entryX=-0.001;entryY=0.429;entryDx=0;entryDy=0;entryPerimeter=0;" edge="1" parent="1" target="u60iNPJEnE9WAm1l47xR-13">
          <mxGeometry width="160" relative="1" as="geometry">
            <mxPoint x="1030" y="549.79" as="sourcePoint" />
            <mxPoint x="1080" y="549.79" as="targetPoint" />
          </mxGeometry>
        </mxCell>
        <mxCell id="feT8apLmcpWoGLLpXeaf-11" value="" style="endArrow=open;html=1;endSize=12;startArrow=diamondThin;startSize=14;startFill=1;edgeStyle=orthogonalEdgeStyle;align=left;verticalAlign=bottom;rounded=0;exitX=0.21;exitY=1.011;exitDx=0;exitDy=0;exitPerimeter=0;entryX=0.5;entryY=0;entryDx=0;entryDy=0;" edge="1" parent="1" source="hd17lNJhvblxsi9grx8w-11" target="u60iNPJEnE9WAm1l47xR-1">
          <mxGeometry x="-1" y="3" relative="1" as="geometry">
            <mxPoint x="740" y="150" as="sourcePoint" />
            <mxPoint x="500" y="240" as="targetPoint" />
            <Array as="points">
              <mxPoint x="740" y="200" />
              <mxPoint x="555" y="200" />
            </Array>
          </mxGeometry>
        </mxCell>
        <mxCell id="feT8apLmcpWoGLLpXeaf-13" value="" style="endArrow=open;html=1;endSize=12;startArrow=diamondThin;startSize=14;startFill=1;edgeStyle=orthogonalEdgeStyle;align=left;verticalAlign=bottom;rounded=0;exitX=0.21;exitY=1.011;exitDx=0;exitDy=0;exitPerimeter=0;entryX=0.379;entryY=-0.002;entryDx=0;entryDy=0;entryPerimeter=0;" edge="1" parent="1" target="u60iNPJEnE9WAm1l47xR-5">
          <mxGeometry x="-1" y="3" relative="1" as="geometry">
            <mxPoint x="850" y="140" as="sourcePoint" />
            <mxPoint x="1000" y="230" as="targetPoint" />
            <Array as="points">
              <mxPoint x="850" y="200" />
              <mxPoint x="1000" y="200" />
            </Array>
          </mxGeometry>
        </mxCell>
      </root>
    </mxGraphModel>
  </diagram>
</mxfile>
